<?xml version="1.0" encoding="UTF-8"?>
<svg xmlns="http://www.w3.org/2000/svg" xmlns:xlink="http://www.w3.org/1999/xlink" width="24px" height="24px" viewBox="0 0 24 24" version="1.1">
<g id="surface1">
<path style=" stroke:none;fill-rule:nonzero;fill:rgb(0%,0%,0%);fill-opacity:1;" d="M 13.640625 18.667969 C 13.722656 18.5625 13.714844 18.351562 13.625 18.25 L 10.414062 14.761719 C 10.140625 14.460938 10.003906 14.074219 10.027344 13.671875 C 10.054688 13.269531 10.242188 12.902344 10.550781 12.644531 L 13.8125 9.910156 C 13.914062 9.824219 13.949219 9.621094 13.878906 9.507812 C 13.878906 9.507812 12.21875 6.589844 11.554688 5.695312 C 10.800781 4.679688 8.902344 2.464844 6.203125 2.464844 C 2.890625 2.464844 0.1875 5.195312 0.0117188 8.5 C -0.0898438 10.367188 0.511719 11.789062 1.363281 13.074219 C 2.835938 15.316406 8.644531 20.296875 11.152344 21.550781 C 11.207031 21.578125 11.324219 21.597656 11.5 21.386719 Z M 13.640625 18.667969 "/>
<path style=" stroke:none;fill-rule:nonzero;fill:rgb(0%,0%,0%);fill-opacity:1;" d="M 24.019531 8.5 C 23.84375 5.195312 21.140625 2.464844 17.828125 2.464844 C 15.65625 2.464844 14.015625 4.074219 13.015625 5.152344 C 12.96875 5.203125 12.863281 5.332031 13.039062 5.582031 L 15.015625 8.816406 C 15.425781 9.492188 15.273438 10.417969 14.667969 10.925781 L 11.40625 13.660156 C 11.367188 13.695312 11.355469 13.730469 11.355469 13.757812 C 11.351562 13.785156 11.359375 13.824219 11.394531 13.859375 L 14.601562 17.351562 C 15.136719 17.933594 15.171875 18.871094 14.683594 19.492188 L 13.324219 21.230469 C 13.207031 21.359375 13.253906 21.367188 13.300781 21.339844 C 15.976562 19.824219 21.253906 15.222656 22.667969 13.074219 C 23.519531 11.78125 24.117188 10.367188 24.019531 8.5 Z M 24.019531 8.5 "/>
</g>
</svg>
