<?xml version="1.0" encoding="UTF-8"?>
<svg xmlns="http://www.w3.org/2000/svg" xmlns:xlink="http://www.w3.org/1999/xlink" width="24px" height="24px" viewBox="0 0 24 24" version="1.1">
<g id="surface1">
<path style=" stroke:none;fill-rule:nonzero;fill:rgb(0%,0%,0%);fill-opacity:1;" d="M 12 1.5 C 5.371094 1.5 0 5.863281 0 11.25 C 0 13.574219 1.003906 15.703125 2.671875 17.375 C 2.085938 19.738281 0.125 21.84375 0.101562 21.867188 C 0 21.976562 -0.0273438 22.132812 0.03125 22.273438 C 0.09375 22.414062 0.226562 22.5 0.375 22.5 C 3.484375 22.5 5.8125 21.007812 6.964844 20.089844 C 8.5 20.667969 10.199219 21 12 21 C 18.628906 21 24 16.636719 24 11.25 C 24 5.863281 18.628906 1.5 12 1.5 Z M 12 1.5 "/>
</g>
</svg>
