<?xml version="1.0" encoding="UTF-8"?>
<svg xmlns="http://www.w3.org/2000/svg" xmlns:xlink="http://www.w3.org/1999/xlink" width="24px" height="24px" viewBox="0 0 24 24" version="1.1">
<g id="surface1">
<path style=" stroke:none;fill-rule:nonzero;fill:rgb(0%,0%,0%);fill-opacity:1;" d="M 19.226562 0 L 4.773438 0 C 4.089844 0 3.535156 0.554688 3.535156 1.238281 L 3.535156 17.507812 C 3.535156 18.070312 3.8125 18.59375 4.269531 18.917969 L 11.160156 23.734375 C 11.664062 24.089844 12.335938 24.089844 12.839844 23.734375 L 19.730469 18.917969 C 20.1875 18.59375 20.464844 18.070312 20.464844 17.507812 L 20.464844 1.238281 C 20.464844 0.554688 19.910156 0 19.226562 0 Z M 17.195312 9.289062 L 14.84375 11.289062 L 15.574219 14.300781 C 15.714844 14.867188 15.101562 15.316406 14.605469 15.007812 L 12 13.371094 L 9.386719 15.003906 C 8.894531 15.3125 8.28125 14.863281 8.417969 14.292969 L 9.152344 11.285156 L 6.800781 9.285156 C 6.359375 8.910156 6.589844 8.179688 7.171875 8.140625 L 10.238281 7.914062 L 11.398438 5.042969 C 11.617188 4.503906 12.375 4.503906 12.597656 5.042969 L 13.757812 7.914062 L 16.824219 8.140625 C 17.40625 8.183594 17.640625 8.914062 17.195312 9.289062 Z M 17.195312 9.289062 "/>
</g>
</svg>
