<?xml version="1.0" encoding="UTF-8"?>
<svg xmlns="http://www.w3.org/2000/svg" xmlns:xlink="http://www.w3.org/1999/xlink" width="24px" height="24px" viewBox="0 0 24 24" version="1.1">
<g id="surface1">
<path style=" stroke:none;fill-rule:nonzero;fill:rgb(12.941176%,12.941176%,12.941176%);fill-opacity:1;" d="M 20.496094 5.625 C 21.371094 5.933594 22 6.769531 22 7.75 L 22 17.75 C 22 20.097656 20.097656 22 17.75 22 L 7.75 22 C 6.769531 22 5.933594 21.371094 5.625 20.496094 L 7.722656 20.5 L 17.75 20.5 C 19.269531 20.5 20.5 19.269531 20.5 17.75 L 20.5 7.75 L 20.496094 7.699219 Z M 17.246094 2 C 18.488281 2 19.496094 3.007812 19.496094 4.25 L 19.496094 17.246094 C 19.496094 18.488281 18.488281 19.496094 17.246094 19.496094 L 4.25 19.496094 C 3.007812 19.496094 2 18.488281 2 17.246094 L 2 4.25 C 2 3.007812 3.007812 2 4.25 2 Z M 17.246094 3.5 L 4.25 3.5 C 3.835938 3.5 3.5 3.835938 3.5 4.25 L 3.5 17.246094 C 3.5 17.660156 3.835938 17.996094 4.25 17.996094 L 17.246094 17.996094 C 17.660156 17.996094 17.996094 17.660156 17.996094 17.246094 L 17.996094 4.25 C 17.996094 3.835938 17.660156 3.5 17.246094 3.5 Z M 17.246094 3.5 "/>
</g>
</svg>
