<?xml version="1.0" encoding="UTF-8"?>
<svg xmlns="http://www.w3.org/2000/svg" xmlns:xlink="http://www.w3.org/1999/xlink" width="24px" height="24px" viewBox="0 0 24 24" version="1.1">
<g id="surface1">
<path style=" stroke:none;fill-rule:nonzero;fill:rgb(0%,0%,0%);fill-opacity:1;" d="M 21.570312 18.144531 L 6.242188 18.144531 L 6.242188 2.429688 L 21.570312 2.429688 Z M 17.757812 21.570312 L 2.429688 21.570312 L 2.429688 4.777344 L 4.328125 4.777344 L 4.328125 19.097656 C 4.328125 19.625 4.753906 20.054688 5.28125 20.054688 L 17.757812 20.054688 Z M 22.527344 0.515625 L 5.28125 0.515625 C 4.753906 0.515625 4.328125 0.941406 4.328125 1.472656 L 4.328125 2.863281 L 1.472656 2.863281 C 0.941406 2.863281 0.515625 3.289062 0.515625 3.820312 L 0.515625 22.527344 C 0.515625 23.058594 0.941406 23.484375 1.472656 23.484375 L 18.710938 23.484375 C 19.242188 23.484375 19.667969 23.058594 19.667969 22.527344 L 19.667969 20.058594 L 22.523438 20.058594 C 23.054688 20.058594 23.480469 19.632812 23.480469 19.101562 L 23.480469 1.472656 C 23.484375 0.941406 23.058594 0.515625 22.527344 0.515625 Z M 22.527344 0.515625 "/>
<path style=" stroke:none;fill-rule:nonzero;fill:rgb(0%,0%,0%);fill-opacity:1;" d="M 9.804688 7.203125 L 18.003906 7.203125 C 18.535156 7.203125 18.960938 6.777344 18.960938 6.25 C 18.960938 5.71875 18.535156 5.292969 18.003906 5.292969 L 9.804688 5.292969 C 9.277344 5.292969 8.851562 5.71875 8.851562 6.25 C 8.851562 6.773438 9.277344 7.203125 9.804688 7.203125 Z M 9.804688 7.203125 "/>
<path style=" stroke:none;fill-rule:nonzero;fill:rgb(0%,0%,0%);fill-opacity:1;" d="M 9.804688 11.246094 L 18.003906 11.246094 C 18.535156 11.246094 18.960938 10.820312 18.960938 10.289062 C 18.960938 9.757812 18.535156 9.332031 18.003906 9.332031 L 9.804688 9.332031 C 9.277344 9.332031 8.851562 9.757812 8.851562 10.289062 C 8.851562 10.8125 9.277344 11.246094 9.804688 11.246094 Z M 9.804688 11.246094 "/>
<path style=" stroke:none;fill-rule:nonzero;fill:rgb(0%,0%,0%);fill-opacity:1;" d="M 9.804688 15.285156 L 18.003906 15.285156 C 18.535156 15.285156 18.960938 14.859375 18.960938 14.328125 C 18.960938 13.800781 18.535156 13.375 18.003906 13.375 L 9.804688 13.375 C 9.277344 13.375 8.851562 13.800781 8.851562 14.328125 C 8.851562 14.855469 9.277344 15.285156 9.804688 15.285156 Z M 9.804688 15.285156 "/>
</g>
</svg>
