<?xml version="1.0" encoding="UTF-8"?>
<svg xmlns="http://www.w3.org/2000/svg" xmlns:xlink="http://www.w3.org/1999/xlink" width="24px" height="24px" viewBox="0 0 24 24" version="1.1">
<g id="surface1">
<path style=" stroke:none;fill-rule:nonzero;fill:rgb(0%,0%,0%);fill-opacity:1;" d="M 21.75 0 C 22.992188 0 24 1.007812 24 2.25 L 24 15.75 C 24 16.992188 22.992188 18 21.75 18 L 8.25 18 C 7.007812 18 6 16.992188 6 15.75 L 6 2.25 C 6 1.007812 7.007812 0 8.25 0 L 21.75 0 M 8.25 19.5 C 6.183594 19.5 4.5 17.816406 4.5 15.75 L 4.5 6 L 2.25 6 C 1.007812 6 0 7.007812 0 8.25 L 0 21.75 C 0 22.992188 1.007812 24 2.25 24 L 15.75 24 C 16.992188 24 18 22.992188 18 21.75 L 18 19.5 Z M 8.25 19.5 "/>
</g>
</svg>
