<?xml version="1.0" encoding="UTF-8"?>
<svg xmlns="http://www.w3.org/2000/svg" xmlns:xlink="http://www.w3.org/1999/xlink" width="24px" height="24px" viewBox="0 0 24 24" version="1.1">
<g id="surface1">
<path style=" stroke:none;fill-rule:nonzero;fill:rgb(0%,0%,0%);fill-opacity:1;" d="M 23.757812 5.628906 C 23.53125 5.25 23.167969 4.984375 22.738281 4.878906 L 9.964844 1.734375 C 9.835938 1.703125 9.703125 1.6875 9.570312 1.6875 C 8.804688 1.6875 8.144531 2.207031 7.960938 2.949219 L 7.578125 4.511719 L 1.191406 6.539062 C 0.335938 6.808594 -0.164062 7.703125 0.0507812 8.570312 L 3.121094 21.0625 C 3.226562 21.496094 3.496094 21.855469 3.878906 22.082031 C 4.136719 22.234375 4.421875 22.3125 4.710938 22.3125 C 4.855469 22.3125 4.996094 22.292969 5.140625 22.257812 L 14.976562 19.625 L 18.875 20.582031 C 19.003906 20.617188 19.136719 20.632812 19.269531 20.632812 C 20.035156 20.632812 20.695312 20.113281 20.878906 19.371094 L 23.953125 6.878906 C 24.058594 6.453125 23.988281 6.007812 23.757812 5.628906 Z M 4.859375 20.425781 L 1.867188 8.253906 L 7.0625 6.605469 L 4.890625 15.4375 C 4.785156 15.867188 4.851562 16.3125 5.082031 16.691406 C 5.308594 17.070312 5.671875 17.335938 6.101562 17.441406 L 11.269531 18.710938 Z M 20.585938 12.859375 L 18.839844 10.171875 C 18.625 9.839844 18.269531 9.644531 17.886719 9.644531 C 17.628906 9.644531 17.378906 9.730469 17.171875 9.898438 L 13.449219 12.859375 C 13.339844 12.945312 13.203125 12.992188 13.054688 12.992188 C 12.863281 12.992188 12.683594 12.910156 12.566406 12.769531 L 11.15625 11.089844 C 10.886719 10.769531 10.453125 10.578125 9.996094 10.578125 C 9.773438 10.578125 9.554688 10.628906 9.367188 10.71875 L 7.746094 11.53125 L 9.703125 3.566406 L 22.121094 6.621094 Z M 20.585938 12.859375 "/>
<path style=" stroke:none;fill-rule:nonzero;fill:rgb(0%,0%,0%);fill-opacity:1;" d="M 12.753906 8.941406 C 12.882812 8.976562 13.015625 8.992188 13.148438 8.992188 C 13.910156 8.992188 14.570312 8.476562 14.75 7.734375 C 14.96875 6.851562 14.425781 5.957031 13.542969 5.738281 C 13.414062 5.707031 13.28125 5.691406 13.148438 5.691406 C 12.386719 5.691406 11.726562 6.207031 11.546875 6.945312 C 11.328125 7.832031 11.871094 8.726562 12.753906 8.941406 Z M 12.753906 8.941406 "/>
</g>
</svg>
