<?xml version="1.0" encoding="UTF-8"?>
<svg xmlns="http://www.w3.org/2000/svg" xmlns:xlink="http://www.w3.org/1999/xlink" width="24px" height="24px" viewBox="0 0 24 24" version="1.1">
<g id="surface1">
<path style=" stroke:none;fill-rule:nonzero;fill:rgb(12.941176%,12.941176%,12.941176%);fill-opacity:1;" d="M 20.496094 5.625 C 21.371094 5.933594 22 6.769531 22 7.75 L 22 17.75 C 22 20.097656 20.097656 22 17.75 22 L 7.75 22 C 6.769531 22 5.933594 21.371094 5.625 20.496094 L 7.722656 20.5 L 17.75 20.5 C 19.269531 20.5 20.5 19.269531 20.5 17.75 L 20.5 7.75 L 20.496094 7.699219 Z M 17.246094 2 C 18.488281 2 19.496094 3.007812 19.496094 4.25 L 19.496094 17.246094 C 19.496094 18.488281 18.488281 19.496094 17.246094 19.496094 L 4.25 19.496094 C 3.007812 19.496094 2 18.488281 2 17.246094 L 2 4.25 C 2 3.007812 3.007812 2 4.25 2 Z M 13.46875 7.46875 L 9.582031 11.359375 L 8.601562 10.050781 C 8.351562 9.71875 7.882812 9.652344 7.550781 9.898438 C 7.21875 10.148438 7.152344 10.617188 7.398438 10.949219 L 8.898438 12.949219 C 9.175781 13.316406 9.707031 13.351562 10.03125 13.03125 L 14.53125 8.53125 C 14.824219 8.238281 14.824219 7.761719 14.53125 7.46875 C 14.238281 7.175781 13.761719 7.175781 13.46875 7.46875 Z M 13.46875 7.46875 "/>
</g>
</svg>
