<?xml version="1.0" encoding="UTF-8"?>
<svg xmlns="http://www.w3.org/2000/svg" xmlns:xlink="http://www.w3.org/1999/xlink" width="24px" height="24px" viewBox="0 0 24 24" version="1.1">
<g id="surface1">
<path style="fill-rule:nonzero;fill:rgb(100%,100%,100%);fill-opacity:1;stroke-width:10;stroke-linecap:butt;stroke-linejoin:miter;stroke:rgb(100%,100%,100%);stroke-opacity:1;stroke-miterlimit:10;" d="M 423.909505 99.202474 L 423.502604 72.021484 L 182.210286 108.479818 L 182.617188 133.382161 L 182.373047 133.382161 L 182.373047 318.766276 C 167.480469 309.814453 148.111979 306.640625 128.417969 311.360677 C 92.203776 320.23112 69.010417 353.027344 76.660156 384.521484 C 84.391276 416.015625 120.035807 434.488932 156.33138 425.69987 C 186.360677 418.375651 207.519531 394.53125 209.309896 368.489583 L 209.472656 368.489583 L 209.472656 174.886068 L 397.705078 146.402995 L 397.705078 284.586589 C 382.8125 275.634766 363.36263 272.379557 343.66862 277.18099 C 307.535807 285.970052 284.261068 318.766276 291.992188 350.260417 C 299.723307 381.917318 335.286458 400.309245 371.582031 391.520182 C 401.692708 384.195964 422.770182 360.270182 424.560547 334.309896 L 424.804688 334.309896 L 424.804688 99.202474 Z M 423.909505 99.202474 " transform="matrix(0.048,0,0,0.048,0,0)"/>
<path style=" stroke:none;fill-rule:nonzero;fill:rgb(18.823529%,18.823529%,18.823529%);fill-opacity:1;" d="M 20.347656 4.761719 L 20.328125 3.457031 L 8.746094 5.207031 L 8.765625 6.402344 L 8.753906 6.402344 L 8.753906 15.300781 C 8.039062 14.871094 7.109375 14.71875 6.164062 14.945312 C 4.425781 15.371094 3.3125 16.945312 3.679688 18.457031 C 4.050781 19.96875 5.761719 20.855469 7.503906 20.433594 C 8.945312 20.082031 9.960938 18.9375 10.046875 17.6875 L 10.054688 17.6875 L 10.054688 8.394531 L 19.089844 7.027344 L 19.089844 13.660156 C 18.375 13.230469 17.441406 13.074219 16.496094 13.304688 C 14.761719 13.726562 13.644531 15.300781 14.015625 16.8125 C 14.386719 18.332031 16.09375 19.214844 17.835938 18.792969 C 19.28125 18.441406 20.292969 17.292969 20.378906 16.046875 L 20.390625 16.046875 L 20.390625 4.761719 Z M 20.347656 4.761719 "/>
</g>
</svg>
