<?xml version="1.0" encoding="UTF-8"?>
<svg xmlns="http://www.w3.org/2000/svg" xmlns:xlink="http://www.w3.org/1999/xlink" width="24px" height="24px" viewBox="0 0 24 24" version="1.1">
<g id="surface1">
<path style=" stroke:none;fill-rule:nonzero;fill:rgb(0%,0%,0%);fill-opacity:1;" d="M 4 8 L 2 8 L 2 20 C 2 21.101562 2.898438 22 4 22 L 16 22 L 16 20 L 4 20 Z M 4 8 "/>
<path style=" stroke:none;fill-rule:nonzero;fill:rgb(0%,0%,0%);fill-opacity:1;" d="M 20 2 L 8 2 C 6.894531 2 6 2.894531 6 4 L 6 16 C 6 17.105469 6.894531 18 8 18 L 20 18 C 21.105469 18 22 17.105469 22 16 L 22 4 C 22 2.894531 21.105469 2 20 2 Z M 11 14 L 11 6 L 18 10 Z M 11 14 "/>
</g>
</svg>
