<?xml version="1.0" encoding="UTF-8"?>
<svg xmlns="http://www.w3.org/2000/svg" xmlns:xlink="http://www.w3.org/1999/xlink" width="30px" height="30px" viewBox="0 0 30 30" version="1.1">
<g id="surface1">
<path style=" stroke:none;fill-rule:nonzero;fill:rgb(0%,0%,0%);fill-opacity:1;" d="M 8.480469 6.273438 C 8.40625 6.507812 8.332031 6.738281 8.289062 6.984375 C 8.238281 7.289062 8.210938 7.601562 8.210938 7.921875 C 8.210938 11.054688 10.851562 13.59375 14.117188 13.59375 C 17.375 13.59375 20.019531 11.054688 20.019531 7.921875 C 20.019531 7.292969 19.890625 6.699219 19.695312 6.136719 L 20.894531 4.546875 L 18.746094 3.820312 L 19.164062 1.710938 L 16.542969 2.429688 L 15.335938 0 L 13.09375 2.246094 L 11.359375 0.3125 L 10.542969 2.867188 L 7.753906 1.988281 L 8.804688 4.246094 L 6.777344 4.792969 Z M 8.480469 6.273438 "/>
<path style=" stroke:none;fill-rule:nonzero;fill:rgb(0%,0%,0%);fill-opacity:1;" d="M 26.199219 26.773438 L 26.199219 26.746094 L 26.101562 26.746094 L 26.101562 25.996094 L 25.179688 25.996094 L 25.179688 14.449219 L 4.296875 14.449219 L 4.296875 26 L 3.558594 26 L 3.558594 26.773438 L 0.527344 26.773438 L 0.527344 29.476562 L 28.945312 29.476562 L 28.945312 26.773438 Z M 14.984375 21.984375 C 14.1875 21.984375 13.546875 21.351562 13.546875 20.566406 C 13.546875 19.785156 14.191406 19.148438 14.984375 19.148438 C 15.777344 19.148438 16.421875 19.785156 16.421875 20.566406 C 16.421875 21.351562 15.777344 21.984375 14.984375 21.984375 Z M 14.984375 21.984375 "/>
</g>
</svg>
