<?xml version="1.0" encoding="UTF-8"?>
<svg xmlns="http://www.w3.org/2000/svg" xmlns:xlink="http://www.w3.org/1999/xlink" width="24px" height="24px" viewBox="0 0 24 24" version="1.1">
<g id="surface1">
<path style=" stroke:none;fill-rule:nonzero;fill:rgb(33.333333%,33.333333%,33.333333%);fill-opacity:1;" d="M 12 0 C 18.628906 0 24 5.371094 24 12 C 24 18.628906 18.628906 24 12 24 C 5.371094 24 0 18.628906 0 12 C 0 5.371094 5.371094 0 12 0 Z M 12 1.675781 C 6.296875 1.675781 1.675781 6.296875 1.675781 12 C 1.675781 17.703125 6.296875 22.324219 12 22.324219 C 17.703125 22.324219 22.324219 17.703125 22.324219 12 C 22.324219 6.296875 17.703125 1.675781 12 1.675781 Z M 12 13.679688 C 14.203125 13.679688 16.054688 15.320312 16.328125 17.488281 C 16.386719 17.9375 16.066406 18.347656 15.621094 18.402344 C 15.171875 18.460938 14.761719 18.144531 14.707031 17.695312 C 14.535156 16.339844 13.378906 15.316406 12 15.316406 C 10.617188 15.316406 9.457031 16.351562 9.292969 17.710938 C 9.238281 18.160156 8.832031 18.480469 8.382812 18.429688 C 7.933594 18.375 7.613281 17.964844 7.667969 17.519531 C 7.929688 15.335938 9.785156 13.679688 12 13.679688 Z M 6.976562 7.535156 C 7.902344 7.535156 8.652344 8.285156 8.652344 9.210938 C 8.652344 10.132812 7.902344 10.882812 6.976562 10.882812 C 6.050781 10.882812 5.300781 10.132812 5.300781 9.210938 C 5.300781 8.285156 6.050781 7.535156 6.976562 7.535156 Z M 17.023438 7.535156 C 17.949219 7.535156 18.699219 8.285156 18.699219 9.210938 C 18.699219 10.132812 17.949219 10.882812 17.023438 10.882812 C 16.097656 10.882812 15.347656 10.132812 15.347656 9.210938 C 15.347656 8.285156 16.097656 7.535156 17.023438 7.535156 Z M 17.023438 7.535156 "/>
</g>
</svg>
