<?xml version="1.0" encoding="UTF-8"?>
<svg xmlns="http://www.w3.org/2000/svg" xmlns:xlink="http://www.w3.org/1999/xlink" width="24px" height="24px" viewBox="0 0 24 24" version="1.1">
<g id="surface1">
<path style=" stroke:none;fill-rule:nonzero;fill:rgb(33.333333%,33.333333%,33.333333%);fill-opacity:1;" d="M 12 0 C 18.410156 0 24 5.292969 24 11.402344 C 24 17.40625 18.535156 22.128906 12 22.128906 C 10.589844 22.128906 9.199219 21.90625 7.882812 21.476562 C 7.328125 22.015625 7.136719 22.199219 5.953125 23.339844 C 5.101562 23.980469 4.300781 24.199219 3.585938 23.796875 C 2.863281 23.386719 2.644531 22.59375 2.792969 21.546875 L 3.269531 18.765625 C 1.191406 16.804688 0 14.210938 0 11.402344 C 0 5.292969 5.589844 0 12 0 Z M 12 1.679688 C 6.496094 1.679688 1.679688 6.242188 1.679688 11.402344 C 1.679688 13.855469 2.773438 16.113281 4.703125 17.796875 C 4.714844 17.808594 4.714844 17.808594 4.726562 17.816406 L 5.085938 18.125 L 5.003906 18.59375 C 4.933594 19.015625 4.882812 19.296875 4.839844 19.558594 L 4.792969 19.816406 C 4.71875 20.246094 4.636719 20.726562 4.453125 21.804688 C 4.425781 21.996094 4.417969 22.128906 4.414062 22.210938 L 4.414062 22.324219 C 4.414062 22.328125 4.414062 22.332031 4.414062 22.332031 C 4.421875 22.320312 4.585938 22.269531 4.863281 22.066406 L 7.46875 19.539062 L 7.964844 19.726562 C 9.238281 20.203125 10.609375 20.453125 12 20.453125 C 17.660156 20.453125 22.320312 16.417969 22.320312 11.402344 C 22.320312 6.242188 17.503906 1.679688 12 1.679688 Z M 6.273438 9.375 C 7.265625 9.375 8.070312 10.183594 8.070312 11.175781 C 8.070312 12.167969 7.265625 12.972656 6.273438 12.972656 C 5.28125 12.972656 4.472656 12.167969 4.472656 11.175781 C 4.472656 10.183594 5.28125 9.375 6.273438 9.375 Z M 12.269531 9.375 C 13.261719 9.375 14.070312 10.183594 14.070312 11.175781 C 14.070312 12.167969 13.261719 12.972656 12.269531 12.972656 C 11.277344 12.972656 10.46875 12.167969 10.46875 11.175781 C 10.46875 10.183594 11.277344 9.375 12.269531 9.375 Z M 18.265625 9.375 C 19.261719 9.375 20.066406 10.183594 20.066406 11.175781 C 20.066406 12.167969 19.261719 12.972656 18.265625 12.972656 C 17.273438 12.972656 16.46875 12.167969 16.46875 11.175781 C 16.46875 10.183594 17.273438 9.375 18.265625 9.375 Z M 18.265625 9.375 "/>
</g>
</svg>
