<?xml version="1.0" encoding="UTF-8"?>
<svg xmlns="http://www.w3.org/2000/svg" xmlns:xlink="http://www.w3.org/1999/xlink" width="24px" height="24px" viewBox="0 0 24 24" version="1.1">
<g id="surface1">
<path style=" stroke:none;fill-rule:nonzero;fill:rgb(33.333333%,33.333333%,33.333333%);fill-opacity:1;" d="M 12 0 C 18.628906 0 24 5.371094 24 12 C 24 18.628906 18.628906 24 12 24 C 5.371094 24 0 18.628906 0 12 C 0 5.371094 5.371094 0 12 0 Z M 12 1.675781 C 6.296875 1.675781 1.675781 6.296875 1.675781 12 C 1.675781 17.703125 6.296875 22.324219 12 22.324219 C 17.703125 22.324219 22.324219 17.703125 22.324219 12 C 22.324219 6.296875 17.703125 1.675781 12 1.675781 Z M 9.292969 14.398438 C 9.457031 15.761719 10.617188 16.796875 12 16.796875 C 13.378906 16.796875 14.535156 15.769531 14.707031 14.417969 C 14.761719 13.96875 15.171875 13.652344 15.621094 13.707031 C 16.066406 13.765625 16.386719 14.175781 16.328125 14.621094 C 16.054688 16.792969 14.203125 18.433594 12 18.433594 C 9.785156 18.433594 7.929688 16.777344 7.667969 14.59375 C 7.613281 14.144531 7.933594 13.738281 8.382812 13.683594 C 8.832031 13.628906 9.238281 13.949219 9.292969 14.398438 Z M 6.976562 7.535156 C 7.902344 7.535156 8.652344 8.285156 8.652344 9.210938 C 8.652344 10.132812 7.902344 10.882812 6.976562 10.882812 C 6.050781 10.882812 5.300781 10.132812 5.300781 9.210938 C 5.300781 8.285156 6.050781 7.535156 6.976562 7.535156 Z M 17.023438 7.535156 C 17.949219 7.535156 18.699219 8.285156 18.699219 9.210938 C 18.699219 10.132812 17.949219 10.882812 17.023438 10.882812 C 16.097656 10.882812 15.347656 10.132812 15.347656 9.210938 C 15.347656 8.285156 16.097656 7.535156 17.023438 7.535156 Z M 17.023438 7.535156 "/>
</g>
</svg>
