<?xml version="1.0" encoding="UTF-8"?>
<svg xmlns="http://www.w3.org/2000/svg" xmlns:xlink="http://www.w3.org/1999/xlink" width="24px" height="24px" viewBox="0 0 24 24" version="1.1">
<g id="surface1">
<path style=" stroke:none;fill-rule:nonzero;fill:rgb(33.333333%,33.333333%,33.333333%);fill-opacity:1;" d="M 23.15625 14.398438 C 23.621094 14.398438 24 14.777344 24 15.25 L 24 19.097656 C 24 19.566406 23.625 19.945312 23.160156 19.945312 C 22.695312 19.945312 22.320312 19.566406 22.320312 19.097656 L 22.320312 17.746094 C 20.132812 21.414062 16.078125 24 11.707031 24 C 6.417969 24 1.980469 20.734375 0.0585938 15.703125 C -0.109375 15.261719 0.105469 14.769531 0.535156 14.601562 C 0.96875 14.433594 1.457031 14.648438 1.625 15.085938 C 3.300781 19.480469 7.128906 22.300781 11.707031 22.300781 C 15.753906 22.300781 19.53125 19.679688 21.292969 16.113281 L 19.527344 16.125 C 19.0625 16.128906 18.683594 15.75 18.679688 15.28125 C 18.675781 14.8125 19.050781 14.429688 19.515625 14.425781 Z M 12.292969 0 C 17.582031 0 22.019531 3.265625 23.941406 8.296875 C 24.109375 8.738281 23.894531 9.230469 23.464844 9.398438 C 23.03125 9.566406 22.542969 9.351562 22.375 8.914062 C 20.699219 4.519531 16.871094 1.699219 12.292969 1.699219 C 8.246094 1.699219 4.46875 4.320312 2.707031 7.886719 L 4.472656 7.875 C 4.9375 7.871094 5.316406 8.25 5.320312 8.71875 C 5.324219 9.1875 4.949219 9.570312 4.484375 9.574219 L 0.84375 9.601562 C 0.378906 9.601562 0 9.222656 0 8.75 L 0 4.902344 C 0 4.433594 0.375 4.054688 0.839844 4.054688 C 1.304688 4.054688 1.679688 4.433594 1.679688 4.902344 L 1.679688 6.253906 C 3.867188 2.585938 7.921875 0 12.292969 0 Z M 12.292969 0 "/>
</g>
</svg>
