<?xml version="1.0" encoding="UTF-8"?>
<svg xmlns="http://www.w3.org/2000/svg" xmlns:xlink="http://www.w3.org/1999/xlink" width="24px" height="24px" viewBox="0 0 24 24" version="1.1">
<g id="surface1">
<path style=" stroke:none;fill-rule:nonzero;fill:rgb(33.333333%,33.333333%,33.333333%);fill-opacity:1;" d="M 4.683594 15.523438 L 0.515625 10.953125 L 0.445312 10.863281 C 0 10.214844 -0.128906 9.53125 0.140625 8.886719 C 0.410156 8.234375 1.023438 7.84375 1.90625 7.671875 L 7.355469 6.8125 L 10.410156 0.902344 C 10.757812 0.335938 11.269531 0 11.890625 0 C 12.5 0 13.011719 0.324219 13.378906 0.875 L 13.4375 0.980469 L 16.179688 6.816406 L 22.382812 7.808594 C 23.230469 7.960938 23.820312 8.417969 23.96875 9.175781 C 24.097656 9.851562 23.824219 10.511719 23.222656 11.175781 L 18.910156 15.539062 L 19.941406 21.871094 C 20.046875 22.636719 19.839844 23.289062 19.28125 23.699219 C 18.710938 24.121094 17.976562 24.082031 17.046875 23.691406 L 11.792969 20.863281 L 6.609375 23.644531 C 5.882812 24.042969 5.144531 24.066406 4.523438 23.648438 C 3.898438 23.226562 3.644531 22.535156 3.75 21.695312 Z M 6.425781 14.996094 L 6.367188 15.382812 L 5.378906 21.917969 C 5.351562 22.164062 5.375 22.238281 5.441406 22.28125 C 5.507812 22.328125 5.59375 22.324219 5.824219 22.195312 L 11.792969 18.996094 L 12.183594 19.207031 L 17.753906 22.207031 C 18.132812 22.363281 18.308594 22.375 18.308594 22.375 C 18.324219 22.363281 18.339844 22.3125 18.3125 22.113281 L 17.152344 14.980469 L 17.445312 14.679688 L 22.027344 10.042969 C 22.292969 9.753906 22.367188 9.570312 22.351562 9.488281 C 22.351562 9.488281 22.328125 9.472656 22.109375 9.433594 L 15.0625 8.304688 L 11.976562 1.742188 C 11.917969 1.65625 11.898438 1.644531 11.890625 1.644531 C 11.890625 1.644531 11.882812 1.652344 11.84375 1.707031 L 8.4375 8.308594 L 8.023438 8.375 L 2.191406 9.289062 C 1.832031 9.363281 1.6875 9.453125 1.660156 9.519531 C 1.628906 9.589844 1.644531 9.695312 1.773438 9.890625 Z M 6.425781 14.996094 "/>
</g>
</svg>
