<?xml version="1.0" encoding="UTF-8"?>
<svg xmlns="http://www.w3.org/2000/svg" xmlns:xlink="http://www.w3.org/1999/xlink" width="24px" height="24px" viewBox="0 0 24 24" version="1.1">
<g id="surface1">
<path style=" stroke:none;fill-rule:nonzero;fill:rgb(33.333333%,33.333333%,33.333333%);fill-opacity:1;" d="M 6.105469 17.738281 C 8.207031 19.378906 9.96875 19.90625 12 19.90625 C 13.765625 19.90625 16.070312 19.167969 18.285156 17.601562 C 19.882812 16.472656 21.203125 14.824219 22.246094 12.644531 C 21.117188 10.6875 19.8125 9.085938 18.332031 7.832031 C 16.277344 6.09375 14.03125 5.296875 11.957031 5.296875 C 9.808594 5.296875 7.335938 6.253906 5.226562 8.265625 C 3.707031 9.710938 2.554688 11.167969 1.769531 12.628906 C 3.046875 14.777344 4.496094 16.476562 6.105469 17.738281 Z M 12 21.601562 C 9.632812 21.601562 7.519531 20.96875 5.109375 19.085938 C 3.21875 17.609375 1.554688 15.605469 0.113281 13.085938 C -0.0273438 12.835938 -0.0390625 12.53125 0.0898438 12.273438 C 0.96875 10.484375 2.308594 8.734375 4.105469 7.019531 C 6.527344 4.714844 9.398438 3.601562 11.957031 3.601562 C 14.40625 3.601562 17.023438 4.53125 19.378906 6.519531 C 21.113281 7.992188 22.621094 9.882812 23.890625 12.1875 C 24.023438 12.425781 24.035156 12.714844 23.925781 12.960938 C 22.738281 15.601562 21.171875 17.617188 19.21875 19 C 16.726562 20.761719 14.097656 21.601562 12 21.601562 Z M 12.28125 17.28125 C 9.828125 17.28125 7.839844 15.292969 7.839844 12.839844 C 7.839844 10.386719 9.828125 8.398438 12.28125 8.398438 C 14.734375 8.398438 16.722656 10.386719 16.722656 12.839844 C 16.722656 15.292969 14.734375 17.28125 12.28125 17.28125 Z M 12.28125 15.601562 C 13.804688 15.601562 15.039062 14.363281 15.039062 12.839844 C 15.039062 11.316406 13.804688 10.078125 12.28125 10.078125 C 10.757812 10.078125 9.519531 11.316406 9.519531 12.839844 C 9.519531 14.363281 10.757812 15.601562 12.28125 15.601562 Z M 12.28125 15.601562 "/>
</g>
</svg>
